/vscmnt/brussel_pixiu_data/_data_brussel/112/vsc11236/PredSimResults/SUBJ06opt3D/expIG/worker_06.mot
version=1
nRows=4
nColumns=50
inDegrees=yes
endheader
                time	         pelvis_tilt	         pelvis_list	     pelvis_rotation	           pelvis_tx	           pelvis_ty	           pelvis_tz	       hip_flexion_r	     hip_adduction_r	      hip_rotation_r	        knee_angle_r	       ankle_angle_r	         mtp_angle_r	       hip_flexion_l	     hip_adduction_l	      hip_rotation_l	        knee_angle_l	       ankle_angle_l	         mtp_angle_l	    lumbar_extension	      lumbar_bending	     lumbar_rotation	 ercspn_r/activation	 intobl_r/activation	 extobl_r/activation	    abd_r/activation	    add_r/activation	hamstrings_r/activation	bifemsh_r/activation	glut_max_r/activation	iliopsoas_r/activation	rect_fem_r/activation	  vasti_r/activation	gastroc_r/activation	 soleus_r/activation	tib_ant_r/activation	 ercspn_l/activation	 intobl_l/activation	 extobl_l/activation	    abd_l/activation	    add_l/activation	hamstrings_l/activation	bifemsh_l/activation	glut_max_l/activation	iliopsoas_l/activation	rect_fem_l/activation	  vasti_l/activation	gastroc_l/activation	 soleus_l/activation	tib_ant_l/activation	
          1.23825704	         -4.99196293	         -1.57712020	          5.60813486	          1.36208274	          0.93378997	         -0.01130256	         31.22308447	         -0.81502076	         -9.16685937	         -9.99520741	          0.02154700	          0.22035433	        -10.77879842	         -1.80965904	         -8.00016838	        -11.44674178	          8.31554306	         32.91928780	         -5.78650195	          0.22448364	         -7.93849499	          0.18807058	          0.18820730	          0.01000274	          0.01000072	          0.31699351	          0.04855967	          0.03296979	          0.01845284	          0.12204913	          0.01245284	          0.02425054	          0.01001052	          0.01000106	          0.50774741	          0.12965323	          0.01000045	          0.01000111	          0.07866460	          0.01000597	          0.01000748	          0.19767014	          0.01730229	          0.42099567	          0.02127393	          0.01000234	          0.23098910	          0.35352849	          0.02117995	
          1.25063961	         -5.07783153	         -1.52406752	          5.61059786	          1.37876476	          0.93207199	         -0.01054738	         31.16213290	         -0.71569746	         -9.33982286	        -11.19511382	         -0.35376425	          0.22740887	        -11.21958458	         -1.95082701	         -8.43645014	        -12.28396450	          7.30141374	         34.74931658	         -5.43558044	          0.56766758	         -8.41165428	          0.16960319	          0.15601161	          0.01000308	          0.01000018	          0.37208350	          0.05210490	          0.02733731	          0.04115865	          0.10117014	          0.01032609	          0.05020582	          0.01000451	          0.01456104	          0.51850817	          0.15199602	          0.01000051	          0.01000097	          0.06520744	          0.01000855	          0.01001746	          0.16394515	          0.01455214	          0.40828562	          0.01763744	          0.01000747	          0.19538461	          0.33023023	          0.01755671	
          1.26302218	         -5.14132609	         -1.51281710	          5.58950837	          1.39590956	          0.93053506	         -0.00975646	         30.85513662	         -0.64213674	         -9.30884610	        -12.38362128	         -0.62951023	          0.19457070	        -11.54533990	         -2.16831871	         -8.86913945	        -13.40333631	          6.16894644	         36.59725785	         -5.05343899	          0.97095667	         -8.84393833	          0.14059031	          0.12932558	          0.01000220	          0.02982893	          0.30843213	          0.05997294	          0.02267153	          0.03412090	          0.08386292	          0.01000183	          0.06537864	          0.01208044	          0.01207049	          0.56933991	          0.13753847	          0.01000038	          0.01000162	          0.05405238	          0.01000639	          0.01002909	          0.17425764	          0.01206327	          0.41663069	          0.01462180	          0.01000168	          0.16196056	          0.30313454	          0.01455332	
          1.27540475	         -5.18697260	         -1.53400280	          5.53178416	          1.41326010	          0.92927731	         -0.00883755	         30.38000647	         -0.54034925	         -9.40117398	        -13.33744662	         -0.95765241	          0.18211127	        -11.65309011	         -2.46670484	         -9.30862368	        -14.95335094	          4.90184479	         38.45364867	         -4.67185428	          1.41182774	         -9.21903952	          0.14478301	          0.10720202	          0.01000198	          0.07743344	          0.25567330	          0.06842786	          0.01881116	          0.06553067	          0.06951646	          0.01000156	          0.09756899	          0.01001455	          0.01000574	          0.62469677	          0.15181461	          0.01000028	          0.01000125	          0.04480562	          0.01000263	          0.01000530	          0.18253380	          0.01000071	          0.37204579	          0.01212229	          0.01000065	          0.13425401	          0.26478401	          0.01206375	
